<?xml version="1.0" encoding="UTF-8"?>
<svg width="24px" height="24px" viewBox="0 0 24 24" version="1.1" xmlns="http://www.w3.org/2000/svg" xmlns:xlink="http://www.w3.org/1999/xlink">
    <!-- Generator: Sketch 52.4 (67378) - http://www.bohemiancoding.com/sketch -->
    <title>论文集</title>
    <desc>Created with Sketch.</desc>
    <g id="Page-1" stroke="none" stroke-width="1" fill="none" fill-rule="evenodd">
        <g id="内蒙财经大学-科研能力" transform="translate(-1126.000000, -147.000000)">
            <g id="论文集" transform="translate(1126.000000, 147.000000)">
                <circle id="椭圆形" fill="#FFFFFF" cx="12" cy="12" r="12"></circle>
                <path d="M18.65,7.8 C18.84375,7.8 19,7.64375 19,7.45 L19,5.7 C19,5.315625 18.684375,5 18.3,5 L5.7,5 C5.315625,5 5,5.315625 5,5.7 L5,18.3 C5,18.684375 5.315625,19 5.7,19 L18.3,19 C18.684375,19 19,18.684375 19,18.3 L19,10.25 C19,10.05625 18.84375,9.9 18.65,9.9 C18.45625,9.9 18.3,10.05625 18.3,10.25 L18.3,17.95 C18.3,18.14375 18.14375,18.3 17.95,18.3 L6.05,18.3 C5.85625,18.3 5.7,18.14375 5.7,17.95 L5.7,6.05 C5.7,5.85625 5.85625,5.7 6.05,5.7 L17.95,5.7 C18.14375,5.7 18.3,5.85625 18.3,6.05 L18.3,7.45 C18.3,7.64375 18.45625,7.8 18.65,7.8 Z" id="路径" fill="#00E2FF"></path>
                <path d="M15.85,13.4 C15.85,13.2078125 15.6921875,13.05 15.5,13.05 L8.5,13.05 C8.3078125,13.05 8.15,13.2078125 8.15,13.4 C8.15,13.5921875 8.3078125,13.75 8.5,13.75 L15.5,13.75 C15.6921875,13.75 15.85,13.5921875 15.85,13.4 Z M15.5,10.95 L12.7,10.95 C12.5078125,10.95 12.35,11.1078125 12.35,11.3 C12.35,11.4921875 12.5078125,11.65 12.7,11.65 L15.5,11.65 C15.6921875,11.65 15.85,11.4921875 15.85,11.3 C15.85,11.1078125 15.6921875,10.95 15.5,10.95 Z M8.5,15.15 C8.3078125,15.15 8.15,15.3078125 8.15,15.5 C8.15,15.6921875 8.3078125,15.85 8.5,15.85 L12.7,15.85 C12.8921875,15.85 13.05,15.6921875 13.05,15.5 C13.05,15.3078125 12.8921875,15.15 12.7,15.15 L8.5,15.15 Z M10.25,11.65 C10.4421875,11.65 10.6,11.4921875 10.6,11.3 L10.6,8.85 L12,8.85 C12.1921875,8.85 12.35,8.6921875 12.35,8.5 C12.35,8.3078125 12.1921875,8.15 12,8.15 L8.5,8.15 C8.3078125,8.15 8.15,8.3078125 8.15,8.5 C8.15,8.6921875 8.3078125,8.85 8.5,8.85 L9.9,8.85 L9.9,11.3 C9.9,11.4921875 10.0578125,11.65 10.25,11.65 Z" id="形状" fill="#00E2FF" fill-rule="nonzero"></path>
            </g>
        </g>
    </g>
</svg>