<?xml version="1.0" encoding="UTF-8"?>
<svg width="24px" height="24px" viewBox="0 0 24 24" version="1.1" xmlns="http://www.w3.org/2000/svg" xmlns:xlink="http://www.w3.org/1999/xlink">
    <!-- Generator: Sketch 52.4 (67378) - http://www.bohemiancoding.com/sketch -->
    <title>期刊论文</title>
    <desc>Created with Sketch.</desc>
    <g id="Page-1" stroke="none" stroke-width="1" fill="none" fill-rule="evenodd">
        <g id="内蒙财经大学-科研能力" transform="translate(-1223.000000, -147.000000)">
            <g id="期刊论文" transform="translate(1223.000000, 147.000000)">
                <circle id="椭圆形" fill="#FFFFFF" cx="12" cy="12" r="12"></circle>
                <path d="M17.2662477,19 L6.12937173,19 C5.50682853,19 5.00215756,18.495329 5.00215756,17.8727858 L5.00215756,6.12721417 C5.00215756,5.50467097 5.50682853,5 6.12937173,5 L17.2662477,5 C17.8887909,5 18.3934619,5.50467097 18.3934619,6.12721417 L18.3934619,17.8727858 C18.3934619,18.495329 17.8887909,19 17.2662477,19 Z M6.12937173,5.57206119 C5.81810013,5.5720612 5.56576465,5.82439669 5.56576465,6.13566828 L5.56576465,17.8727858 C5.56576466,18.1840574 5.81810014,18.4363929 6.12937173,18.4363929 L17.2662477,18.4363929 C17.5775193,18.4363929 17.8298548,18.1840574 17.8298548,17.8727858 L17.8298548,6.12721417 C17.8298548,5.81594258 17.5775193,5.5636071 17.2662477,5.56360709 L6.12937173,5.56360709 L6.12937173,5.57206119 Z" id="形状" fill="#5D95F2" fill-rule="nonzero"></path>
                <path d="M15.2682606,13.6908213 L7.94136851,13.6908213 C7.78573271,13.6908213 7.65956497,13.5646535 7.65956497,13.4090177 C7.65956497,13.2533819 7.78573271,13.1272142 7.94136851,13.1272142 L15.2682606,13.1272142 C15.4238964,13.1272142 15.5500642,13.2533819 15.5500642,13.4090177 C15.5500642,13.5646535 15.4238964,13.6908213 15.2682606,13.6908213 Z M15.2682606,15.9452496 L7.94136851,15.9452496 C7.78573271,15.9452496 7.65956497,15.8190819 7.65956497,15.6634461 C7.65956497,15.5078103 7.78573271,15.3816425 7.94136851,15.3816425 L15.2682606,15.3816425 C15.4238964,15.3816425 15.5500642,15.5078103 15.5500642,15.6634461 C15.5500642,15.8190819 15.4238964,15.9452496 15.2682606,15.9452496 Z M16.3701125,11.7181965 C16.2773736,11.7180627 16.1883674,11.6816511 16.1221254,11.6167472 L14.6990175,10.2359098 L13.2899997,11.6167472 C13.1877845,11.7166458 13.0356367,11.7455206 12.9039289,11.6900161 C12.7655729,11.6307314 12.6765823,11.4939083 12.6784861,11.3433977 L12.6784561,5.04790661 L16.730851,5.04790661 L16.730821,11.3462158 C16.7327247,11.4967263 16.6437341,11.6335494 16.5053782,11.6928341 C16.4623957,11.7100995 16.41643,11.7187181 16.3701125,11.7181965 Z M14.6961994,9.60466989 C14.8068329,9.60506037 14.9129648,9.6485239 14.9920932,9.72584541 L16.1587598,10.8530596 L16.1587598,5.6199678 L13.2477292,5.6199678 L13.2477292,10.8586957 L14.4003057,9.73148148 C14.4796762,9.65244647 14.5870083,9.6078935 14.6990175,9.60748792 L14.6961994,9.60466989 Z" id="形状" fill="#5D95F2" fill-rule="nonzero"></path>
            </g>
        </g>
    </g>
</svg>