<?xml version="1.0" encoding="UTF-8"?>
<svg width="14px" height="14px" viewBox="0 0 14 14" version="1.1" xmlns="http://www.w3.org/2000/svg" xmlns:xlink="http://www.w3.org/1999/xlink">
    <!-- Generator: Sketch 52.4 (67378) - http://www.bohemiancoding.com/sketch -->
    <title>预警</title>
    <desc>Created with Sketch.</desc>
    <g id="Page-1" stroke="none" stroke-width="1" fill="none" fill-rule="evenodd">
        <g id="内蒙财经大学-校情监控" transform="translate(-264.000000, -717.000000)">
            <g id="折线图-copy" transform="translate(19.000000, 629.000000)">
                <g id="分组-3" transform="translate(21.000000, 59.000000)">
                    <g id="预警" transform="translate(224.000000, 29.000000)">
                        <rect id="矩形" fill="#000000" opacity="0" x="0" y="0" width="14" height="14"></rect>
                        <path d="M3.28263086,12.6378438 L2.29582227,12.6378438 L2.29582227,8.06777344 C2.29582227,5.47435547 4.39772266,3.37096484 6.99263086,3.37096484 C9.58718359,3.37096484 11.6890566,5.47473828 11.6890566,8.06777344 L11.6890566,12.6378438 L3.28302734,12.6378301 L3.28263086,12.6378438 Z M7.33241797,5.264 L5.01560938,9.07957422 L6.86853125,9.07957422 L6.40464453,11.9412344 L8.72145313,8.1256875 L6.86853125,8.1256875 L7.33241797,5.264 Z M10.8854102,1.07232617 C11.1028861,1.19907784 11.1772511,1.47761845 11.0518926,1.69590039 L10.219084,3.14394336 L9.4320625,2.68838281 L10.2644746,1.2403125 C10.3241626,1.1360238 10.4228463,1.05972802 10.5388032,1.0282195 C10.6547601,0.996710974 10.7784852,1.01257246 10.8827441,1.0723125 L10.8853965,1.0723125 L10.8854102,1.07232617 Z M6.99111328,0 C7.26353906,0 7.48375195,0.205078125 7.48375195,0.459730469 L7.48375195,2.10076563 L6.49846094,2.10076563 L6.49846094,0.458582031 C6.49847461,0.205078125 6.7186875,0 6.99112695,0 L6.99111328,0 Z M3.09949609,1.07232617 C3.20387978,1.0119221 3.32800626,0.99552806 3.44449288,1.02676061 C3.5609795,1.05799316 3.66025466,1.13428596 3.72041797,1.23880859 L4.55322656,2.68686523 L3.76620508,3.14282227 L2.93263086,1.69438281 C2.80740218,1.4765507 2.88183047,1.19846831 3.09912695,1.0723125 L3.09949609,1.07232617 Z M0.250332031,3.934 C0.310280605,3.82935262 0.409489748,3.75293576 0.52597275,3.72168492 C0.642455752,3.69043407 0.766592233,3.70693025 0.870871094,3.76751758 L2.31362305,4.60448242 L1.85958008,5.39453906 L0.416404297,4.55642578 C0.198900165,4.43025481 0.124449768,4.15190803 0.249921875,3.934 L0.250332031,3.934 Z M13.7346016,3.934 C13.8599578,4.1522855 13.7855864,4.43082721 13.5681055,4.55757422 L12.1257227,5.3934043 L11.6716797,4.60297852 L13.1140625,3.76638281 C13.3307221,3.64135996 13.6076907,3.71512451 13.7334668,3.93134766 C13.7334668,3.93286523 13.7346016,3.93286523 13.7346016,3.934 Z M0.686587891,12.6378438 L13.2998223,12.6378438 C13.5722617,12.6378438 13.7939922,12.8595742 13.7939922,13.132 C13.7939922,13.4044258 13.5722617,13.6261562 13.2998223,13.6261562 L0.686601563,13.6261562 C0.414162109,13.6261562 0.192431641,13.4048086 0.192431641,13.132 C0.192129414,13.0008468 0.244096976,12.8749785 0.336837804,12.7822402 C0.429578632,12.689502 0.555448396,12.6375379 0.686601563,12.6378438 L0.686587891,12.6378438 Z" id="形状" fill="#F5222D" fill-rule="nonzero"></path>
                    </g>
                </g>
            </g>
        </g>
    </g>
</svg>