<?xml version="1.0" encoding="UTF-8"?>
<svg width="24px" height="24px" viewBox="0 0 24 24" version="1.1" xmlns="http://www.w3.org/2000/svg" xmlns:xlink="http://www.w3.org/1999/xlink">
    <!-- Generator: Sketch 52.4 (67378) - http://www.bohemiancoding.com/sketch -->
    <title>文章</title>
    <desc>Created with Sketch.</desc>
    <g id="Page-1" stroke="none" stroke-width="1" fill="none" fill-rule="evenodd">
        <g id="内蒙财经大学-科研能力" transform="translate(-1320.000000, -147.000000)">
            <g id="文章" transform="translate(1320.000000, 147.000000)">
                <circle id="椭圆形" fill="#FFFFFF" cx="12" cy="12" r="12"></circle>
                <path d="M13.9846931,14.5155438 L8.67021765,14.5155438 C8.51590118,14.5155438 8.39080295,14.3904456 8.39080295,14.2361291 C8.39080295,14.0818126 8.51590118,13.9567144 8.67021765,13.9567144 L13.9854926,13.9567144 C14.1398091,13.9567144 14.2649073,14.0818126 14.2649073,14.2361291 C14.2649073,14.3904456 14.1398091,14.5155438 13.9854926,14.5155438 L13.9846931,14.5155438 Z M13.9846931,11.997214 L8.67021765,11.997214 C8.51568041,11.997214 8.39040322,11.8719368 8.39040322,11.7173995 C8.39040322,11.5628623 8.51568041,11.4375851 8.67021765,11.4375851 L13.9854926,11.4375851 C14.1400298,11.4375851 14.265307,11.5628623 14.265307,11.7173995 C14.265307,11.8719368 14.1400298,11.997214 13.9854926,11.997214 L13.9846931,11.997214 Z M11.4663633,9.47968357 L8.66981791,9.47968357 C8.56999265,9.47968357 8.4777503,9.42642743 8.42783767,9.33997622 C8.37792504,9.25352501 8.37792504,9.14701273 8.42783767,9.06056151 C8.4777503,8.9741103 8.56999265,8.92085416 8.66981791,8.92085417 L11.4679622,8.92085417 C11.5677875,8.92113979 11.6598774,8.97465986 11.7095427,9.06125388 C11.759208,9.1478479 11.7589032,9.25436018 11.7087432,9.34066858 C11.6585832,9.42697698 11.5661885,9.47996919 11.4663633,9.47968357 Z M17.621881,9.47968357 L14.8237367,9.47968357 C14.0522483,9.47968357 13.4246645,8.85209978 13.4246645,8.08061142 L13.4246645,5.28406606 C13.4246422,5.18422588 13.4778934,5.09196016 13.5643538,5.04203361 C13.6508142,4.99210705 13.7573443,4.99210705 13.8438047,5.04203361 C13.9302651,5.09196016 13.9835163,5.18422588 13.9834939,5.28406606 L13.9834939,8.08061142 C13.9839347,8.54359893 14.3591502,8.9188145 14.8221377,8.91925523 L17.620282,8.91925523 C17.7745797,8.91925523 17.8996967,9.04437226 17.8996967,9.19906966 C17.9003609,9.35323142 17.7760416,9.47880281 17.621881,9.47968357 Z" id="形状" fill="#7A7BEA" fill-rule="nonzero"></path>
                <path d="M16.3631158,18.990576 L7.41145245,18.990576 C6.63996409,18.990576 6.0123803,18.3629922 6.0123803,17.5915039 L6.0123803,6.40212457 C6.0123803,5.63063621 6.63996409,5.00305242 7.41145245,5.00305244 L13.7056782,5.00305244 C13.7798306,5.00316137 13.8509956,5.03228735 13.9039467,5.08419861 L17.8201495,9.00200036 C17.8726549,9.05455847 17.9018859,9.12598005 17.9012957,9.20026887 L17.9012957,17.5931028 C17.9012957,18.416157 17.0906333,18.990576 16.3631158,18.990576 Z M7.41145245,5.56348076 C6.94846494,5.56392149 6.57324937,5.93913706 6.57280864,6.40212457 L6.57280864,17.5915039 C6.57324937,18.0544914 6.94846494,18.4297069 7.41145245,18.4301477 L16.3631158,18.4301477 C16.8160154,18.4301477 17.3424663,18.063191 17.3424663,17.5915039 L17.3424663,9.31579226 L13.5901548,5.56388049 L7.41145245,5.56388049 L7.41145245,5.56348076 Z" id="形状" fill="#7A7BEA" fill-rule="nonzero"></path>
            </g>
        </g>
    </g>
</svg>